<svg width="110" height="163" viewBox="0 0 110 163" fill="none" xmlns="http://www.w3.org/2000/svg">
<path d="M28.281 81.4289C48.1999 86.9111 68.6781 81.785 80.2311 77.7031C92.4046 99.7315 108.269 121.594 128.919 141.371C125.425 147.363 120.498 154.058 113.436 160.379C113.131 160.666 112.661 160.803 112.215 160.692C106.94 159.454 95.4176 156.635 90.7869 154.659C78.0287 149.218 66.8644 139.059 66.4897 138.004C66.4897 138.004 66.4854 138.004 66.4859 137.999C66.2965 137.433 66.4686 136.799 66.9163 136.421C67.7767 135.653 81.9644 134.399 97.6025 117.171C98.5483 116.132 97.6064 114.477 96.2598 114.807C78.1239 119.279 65.4965 124.249 47.8291 118.549C47.2364 118.337 48.537 120.68 26.7122 83.5477C26.0571 82.4377 27.0746 81.0904 28.281 81.4289Z" fill="#5EAC24"/>
<path d="M30.1558 -52.6634C31.8962 -57.3926 34.7985 -61.471 38.4751 -64.5794C38.2754 -62.8452 38.1522 -57.9639 38.6871 -54.6972C43.1162 -27.6555 50.1486 20.9133 77.6432 72.9223C58.6681 71.1055 39.3861 67.2072 23.2895 60.0457C22.883 59.864 22.5888 59.4991 22.4899 59.0543C20.8444 51.4763 18.1535 35.7968 17.0768 24.9176C16.9898 24.0077 17.7503 23.2416 18.6338 23.3427C31.0993 24.7504 40.8421 25.4127 47.8021 25.6961C49.3969 25.7758 49.8608 23.3909 48.2909 22.894C38.0232 19.6306 33.1719 14.9728 20.2322 6.98817C18.2168 5.74136 17.0812 3.47582 17.1805 1.13751C17.2273 -1.6169 21.6371 -29.4779 30.1558 -52.6634Z" fill="#5EAC24"/>
</svg>
