<svg width="58" height="83" viewBox="0 0 58 83" fill="none" xmlns="http://www.w3.org/2000/svg">
<path d="M29.8267 0.0334495C14.756 -4.49492 -1.13222 4.05133 -5.66059 19.122C-6.40923 21.6158 -6.94975 24.1674 -7.2766 26.7505C-7.75048 30.6693 -7.76969 34.6297 -7.33385 38.5529C-5.53208 51.5834 -0.438898 63.9397 7.4648 74.4551C7.4648 74.4551 40.4103 63.8257 48.9152 35.5207C51.0898 28.2835 50.3004 20.4789 46.7206 13.8237C43.1408 7.16856 37.0639 2.20805 29.8267 0.0334495ZM17.9003 39.725C9.67996 37.255 5.01837 28.5887 7.4884 20.3683C9.95842 12.1479 18.6247 7.48631 26.8451 9.95633C35.0655 12.4264 39.727 21.0926 37.257 29.313C36.0709 33.2606 33.3651 36.5753 29.7351 38.5279C26.105 40.4805 21.8479 40.9111 17.9003 39.725Z" fill="#E64C3C"/>
</svg>
